<mxfile host="app.diagrams.net" modified="2024-03-27T11:50:47.341Z" agent="Mozilla/5.0 (Windows NT 10.0; Win64; x64) AppleWebKit/537.36 (KHTML, like Gecko) Chrome/123.0.0.0 Safari/537.36" etag="KTwHD4VYolRXzORf9DOb" version="24.2.0" type="device">
  <diagram name="PÃ¡gina-1" id="KzB1dGTMLKv5kBDuEXML">
    <mxGraphModel dx="880" dy="476" grid="1" gridSize="10" guides="1" tooltips="1" connect="1" arrows="1" fold="1" page="1" pageScale="1" pageWidth="827" pageHeight="1169" math="0" shadow="0">
      <root>
        <mxCell id="0" />
        <mxCell id="1" parent="0" />
        <mxCell id="RrTQOzvSaaIx-IsHx9dG-1" value="" style="verticalLabelPosition=bottom;verticalAlign=top;html=1;shape=mxgraph.basic.arc;startAngle=0.3;endAngle=0.1;" vertex="1" parent="1">
          <mxGeometry x="354" y="100" width="100" height="100" as="geometry" />
        </mxCell>
        <mxCell id="RrTQOzvSaaIx-IsHx9dG-2" value="" style="verticalLabelPosition=bottom;verticalAlign=top;html=1;shape=mxgraph.basic.arc;startAngle=0.3;endAngle=0.1;" vertex="1" parent="1">
          <mxGeometry x="514" y="210" width="100" height="100" as="geometry" />
        </mxCell>
        <mxCell id="RrTQOzvSaaIx-IsHx9dG-3" value="" style="verticalLabelPosition=bottom;verticalAlign=top;html=1;shape=mxgraph.basic.arc;startAngle=0.3;endAngle=0.1;" vertex="1" parent="1">
          <mxGeometry x="354" y="330" width="100" height="100" as="geometry" />
        </mxCell>
        <mxCell id="RrTQOzvSaaIx-IsHx9dG-4" value="" style="verticalLabelPosition=bottom;verticalAlign=top;html=1;shape=mxgraph.basic.arc;startAngle=0.3;endAngle=0.1;" vertex="1" parent="1">
          <mxGeometry x="214" y="210" width="100" height="100" as="geometry" />
        </mxCell>
        <mxCell id="RrTQOzvSaaIx-IsHx9dG-5" value="" style="curved=1;endArrow=classic;html=1;rounded=0;entryX=0.02;entryY=0.52;entryDx=0;entryDy=0;entryPerimeter=0;" edge="1" parent="1" target="RrTQOzvSaaIx-IsHx9dG-1">
          <mxGeometry width="50" height="50" relative="1" as="geometry">
            <mxPoint x="264" y="210" as="sourcePoint" />
            <mxPoint x="314" y="160" as="targetPoint" />
            <Array as="points">
              <mxPoint x="264" y="160" />
            </Array>
          </mxGeometry>
        </mxCell>
        <mxCell id="RrTQOzvSaaIx-IsHx9dG-6" value="" style="curved=1;endArrow=classic;html=1;rounded=0;entryX=0.52;entryY=1.04;entryDx=0;entryDy=0;entryPerimeter=0;exitX=-0.01;exitY=0.62;exitDx=0;exitDy=0;exitPerimeter=0;" edge="1" parent="1" source="RrTQOzvSaaIx-IsHx9dG-3" target="RrTQOzvSaaIx-IsHx9dG-4">
          <mxGeometry width="50" height="50" relative="1" as="geometry">
            <mxPoint x="344" y="390" as="sourcePoint" />
            <mxPoint x="289" y="330" as="targetPoint" />
            <Array as="points">
              <mxPoint x="289" y="380" />
              <mxPoint x="239" y="330" />
            </Array>
          </mxGeometry>
        </mxCell>
        <mxCell id="RrTQOzvSaaIx-IsHx9dG-7" value="" style="curved=1;endArrow=classic;html=1;rounded=0;entryX=1;entryY=0.74;entryDx=0;entryDy=0;entryPerimeter=0;exitX=0.64;exitY=1.01;exitDx=0;exitDy=0;exitPerimeter=0;" edge="1" parent="1" source="RrTQOzvSaaIx-IsHx9dG-2" target="RrTQOzvSaaIx-IsHx9dG-3">
          <mxGeometry width="50" height="50" relative="1" as="geometry">
            <mxPoint x="490" y="380" as="sourcePoint" />
            <mxPoint x="540" y="330" as="targetPoint" />
            <Array as="points">
              <mxPoint x="540" y="380" />
            </Array>
          </mxGeometry>
        </mxCell>
        <mxCell id="RrTQOzvSaaIx-IsHx9dG-8" value="" style="curved=1;endArrow=classic;html=1;rounded=0;entryX=0.22;entryY=0.06;entryDx=0;entryDy=0;entryPerimeter=0;" edge="1" parent="1" target="RrTQOzvSaaIx-IsHx9dG-2">
          <mxGeometry width="50" height="50" relative="1" as="geometry">
            <mxPoint x="450" y="170" as="sourcePoint" />
            <mxPoint x="500" y="120" as="targetPoint" />
            <Array as="points">
              <mxPoint x="500" y="170" />
            </Array>
          </mxGeometry>
        </mxCell>
        <mxCell id="RrTQOzvSaaIx-IsHx9dG-9" value="" style="curved=1;endArrow=classic;html=1;rounded=0;" edge="1" parent="1">
          <mxGeometry width="50" height="50" relative="1" as="geometry">
            <mxPoint x="610" y="285" as="sourcePoint" />
            <mxPoint x="610" y="280" as="targetPoint" />
            <Array as="points">
              <mxPoint x="660" y="285" />
              <mxPoint x="670" y="230" />
            </Array>
          </mxGeometry>
        </mxCell>
        <mxCell id="RrTQOzvSaaIx-IsHx9dG-11" value="" style="curved=1;endArrow=classic;html=1;rounded=0;entryX=-0.02;entryY=0.61;entryDx=0;entryDy=0;entryPerimeter=0;" edge="1" parent="1" target="RrTQOzvSaaIx-IsHx9dG-2">
          <mxGeometry width="50" height="50" relative="1" as="geometry">
            <mxPoint x="314" y="285" as="sourcePoint" />
            <mxPoint x="364" y="235" as="targetPoint" />
            <Array as="points">
              <mxPoint x="364" y="285" />
            </Array>
          </mxGeometry>
        </mxCell>
        <mxCell id="RrTQOzvSaaIx-IsHx9dG-12" value="" style="curved=1;endArrow=classic;html=1;rounded=0;entryX=0.68;entryY=0.02;entryDx=0;entryDy=0;entryPerimeter=0;exitX=0.78;exitY=0.06;exitDx=0;exitDy=0;exitPerimeter=0;" edge="1" parent="1" source="RrTQOzvSaaIx-IsHx9dG-1" target="RrTQOzvSaaIx-IsHx9dG-1">
          <mxGeometry width="50" height="50" relative="1" as="geometry">
            <mxPoint x="390" y="70" as="sourcePoint" />
            <mxPoint x="440" y="20" as="targetPoint" />
            <Array as="points">
              <mxPoint x="460" y="70" />
              <mxPoint x="410" y="30" />
            </Array>
          </mxGeometry>
        </mxCell>
        <mxCell id="RrTQOzvSaaIx-IsHx9dG-13" value="" style="curved=1;endArrow=classic;html=1;rounded=0;entryX=0.52;entryY=-0.01;entryDx=0;entryDy=0;entryPerimeter=0;" edge="1" parent="1" target="RrTQOzvSaaIx-IsHx9dG-3">
          <mxGeometry width="50" height="50" relative="1" as="geometry">
            <mxPoint x="420" y="330" as="sourcePoint" />
            <mxPoint x="470" y="280" as="targetPoint" />
            <Array as="points">
              <mxPoint x="460" y="310" />
              <mxPoint x="420" y="280" />
            </Array>
          </mxGeometry>
        </mxCell>
        <mxCell id="RrTQOzvSaaIx-IsHx9dG-14" value="S2&lt;br&gt;R$ 1,00&lt;span data-darkreader-inline-color=&quot;&quot; style=&quot;color: rgba(0, 0, 0, 0); font-family: monospace; font-size: 0px; text-align: start; text-wrap: nowrap; --darkreader-inline-color: rgba(232, 230, 227, 0);&quot;&gt;%3CmxGraphModel%3E%3Croot%3E%3CmxCell%20id%3D%220%22%2F%3E%3CmxCell%20id%3D%221%22%20parent%3D%220%22%2F%3E%3CmxCell%20id%3D%222%22%20value%3D%22%22%20style%3D%22verticalLabelPosition%3Dbottom%3BverticalAlign%3Dtop%3Bhtml%3D1%3Bshape%3Dmxgraph.basic.arc%3BstartAngle%3D0.3%3BendAngle%3D0.1%3B%22%20vertex%3D%221%22%20parent%3D%221%22%3E%3CmxGeometry%20x%3D%22364%22%20y%3D%22240%22%20width%3D%22100%22%20height%3D%22100%22%20as%3D%22geometry%22%2F%3E%3C%2FmxCell%3E%3C%2Froot%3E%3C%2FmxGraphModel%3E&lt;/span&gt;" style="text;html=1;align=center;verticalAlign=middle;whiteSpace=wrap;rounded=0;" vertex="1" parent="1">
          <mxGeometry x="374" y="350" width="60" height="30" as="geometry" />
        </mxCell>
        <mxCell id="RrTQOzvSaaIx-IsHx9dG-15" value="S1&lt;br&gt;R$ 0,50&lt;span data-darkreader-inline-color=&quot;&quot; style=&quot;color: rgba(0, 0, 0, 0); font-family: monospace; font-size: 0px; text-align: start; text-wrap: nowrap; --darkreader-inline-color: rgba(232, 230, 227, 0);&quot;&gt;%3CmxGraphModel%3E%3Croot%3E%3CmxCell%20id%3D%220%22%2F%3E%3CmxCell%20id%3D%221%22%20parent%3D%220%22%2F%3E%3CmxCell%20id%3D%222%22%20value%3D%22%22%20style%3D%22verticalLabelPosition%3Dbottom%3BverticalAlign%3Dtop%3Bhtml%3D1%3Bshape%3Dmxgraph.basic.arc%3BstartAngle%3D0.3%3BendAngle%3D0.1%3B%22%20vertex%3D%221%22%20parent%3D%221%22%3E%3CmxGeometry%20x%3D%22364%22%20y%3D%22240%22%20width%3D%22100%22%20height%3D%22100%22%20as%3D%22geometry%22%2F%3E%3C%2FmxCell%3E%3C%2Froot%3E%3C%2FmxGraphModel%3E&lt;/span&gt;" style="text;html=1;align=center;verticalAlign=middle;whiteSpace=wrap;rounded=0;" vertex="1" parent="1">
          <mxGeometry x="534" y="240" width="60" height="30" as="geometry" />
        </mxCell>
        <mxCell id="RrTQOzvSaaIx-IsHx9dG-16" value="S3&lt;br&gt;R$ 1,50&lt;span data-darkreader-inline-color=&quot;&quot; style=&quot;color: rgba(0, 0, 0, 0); font-family: monospace; font-size: 0px; text-align: start; text-wrap: nowrap; --darkreader-inline-color: rgba(232, 230, 227, 0);&quot;&gt;%3CmxGraphModel%3E%3Croot%3E%3CmxCell%20id%3D%220%22%2F%3E%3CmxCell%20id%3D%221%22%20parent%3D%220%22%2F%3E%3CmxCell%20id%3D%222%22%20value%3D%22%22%20style%3D%22verticalLabelPosition%3Dbottom%3BverticalAlign%3Dtop%3Bhtml%3D1%3Bshape%3Dmxgraph.basic.arc%3BstartAngle%3D0.3%3BendAngle%3D0.1%3B%22%20vertex%3D%221%22%20parent%3D%221%22%3E%3CmxGeometry%20x%3D%22364%22%20y%3D%22240%22%20width%3D%22100%22%20height%3D%22100%22%20as%3D%22geometry%22%2F%3E%3C%2FmxCell%3E%3C%2Froot%3E%3C%2FmxGraphModel%3E&lt;/span&gt;" style="text;html=1;align=center;verticalAlign=middle;whiteSpace=wrap;rounded=0;" vertex="1" parent="1">
          <mxGeometry x="234" y="240" width="60" height="30" as="geometry" />
        </mxCell>
        <mxCell id="RrTQOzvSaaIx-IsHx9dG-17" value="S0&lt;br&gt;R$ 0,00&lt;span data-darkreader-inline-color=&quot;&quot; style=&quot;color: rgba(0, 0, 0, 0); font-family: monospace; font-size: 0px; text-align: start; text-wrap: nowrap; --darkreader-inline-color: rgba(232, 230, 227, 0);&quot;&gt;%3CmxGraphModel%3E%3Croot%3E%3CmxCell%20id%3D%220%22%2F%3E%3CmxCell%20id%3D%221%22%20parent%3D%220%22%2F%3E%3CmxCell%20id%3D%222%22%20value%3D%22%22%20style%3D%22verticalLabelPosition%3Dbottom%3BverticalAlign%3Dtop%3Bhtml%3D1%3Bshape%3Dmxgraph.basic.arc%3BstartAngle%3D0.3%3BendAngle%3D0.1%3B%22%20vertex%3D%221%22%20parent%3D%221%22%3E%3CmxGeometry%20x%3D%22364%22%20y%3D%22240%22%20width%3D%22100%22%20height%3D%22100%22%20as%3D%22geometry%22%2F%3E%3C%2FmxCell%3E%3C%2Froot%3E%3C%2FmxGraphModel%3E&lt;/span&gt;" style="text;html=1;align=center;verticalAlign=middle;whiteSpace=wrap;rounded=0;" vertex="1" parent="1">
          <mxGeometry x="374" y="130" width="60" height="30" as="geometry" />
        </mxCell>
        <mxCell id="RrTQOzvSaaIx-IsHx9dG-18" value="M = 0" style="text;html=1;align=center;verticalAlign=middle;whiteSpace=wrap;rounded=0;" vertex="1" parent="1">
          <mxGeometry x="454" y="70" width="60" height="30" as="geometry" />
        </mxCell>
        <mxCell id="RrTQOzvSaaIx-IsHx9dG-19" value="M = 1" style="text;html=1;align=center;verticalAlign=middle;whiteSpace=wrap;rounded=0;" vertex="1" parent="1">
          <mxGeometry x="500" y="160" width="60" height="30" as="geometry" />
        </mxCell>
        <mxCell id="RrTQOzvSaaIx-IsHx9dG-20" value="M = 0" style="text;html=1;align=center;verticalAlign=middle;whiteSpace=wrap;rounded=0;" vertex="1" parent="1">
          <mxGeometry x="374" y="250" width="60" height="30" as="geometry" />
        </mxCell>
        <mxCell id="RrTQOzvSaaIx-IsHx9dG-21" value="M = 0" style="text;html=1;align=center;verticalAlign=middle;whiteSpace=wrap;rounded=0;" vertex="1" parent="1">
          <mxGeometry x="240" y="135" width="60" height="30" as="geometry" />
        </mxCell>
        <mxCell id="RrTQOzvSaaIx-IsHx9dG-22" value="M = 1" style="text;html=1;align=center;verticalAlign=middle;whiteSpace=wrap;rounded=0;" vertex="1" parent="1">
          <mxGeometry x="254" y="380" width="60" height="30" as="geometry" />
        </mxCell>
        <mxCell id="RrTQOzvSaaIx-IsHx9dG-23" value="M = 1" style="text;html=1;align=center;verticalAlign=middle;whiteSpace=wrap;rounded=0;" vertex="1" parent="1">
          <mxGeometry x="534" y="365" width="60" height="30" as="geometry" />
        </mxCell>
        <mxCell id="RrTQOzvSaaIx-IsHx9dG-24" value="M = 0" style="text;html=1;align=center;verticalAlign=middle;whiteSpace=wrap;rounded=0;" vertex="1" parent="1">
          <mxGeometry x="660" y="250" width="60" height="30" as="geometry" />
        </mxCell>
        <mxCell id="RrTQOzvSaaIx-IsHx9dG-25" value="M = 0" style="text;html=1;align=center;verticalAlign=middle;whiteSpace=wrap;rounded=0;" vertex="1" parent="1">
          <mxGeometry x="430" y="310" width="60" height="30" as="geometry" />
        </mxCell>
        <mxCell id="RrTQOzvSaaIx-IsHx9dG-26" value="C = 0" style="text;html=1;align=center;verticalAlign=middle;whiteSpace=wrap;rounded=0;" vertex="1" parent="1">
          <mxGeometry x="374" y="390" width="60" height="30" as="geometry" />
        </mxCell>
        <mxCell id="RrTQOzvSaaIx-IsHx9dG-27" value="C = 1" style="text;html=1;align=center;verticalAlign=middle;whiteSpace=wrap;rounded=0;" vertex="1" parent="1">
          <mxGeometry x="234" y="280" width="60" height="30" as="geometry" />
        </mxCell>
        <mxCell id="RrTQOzvSaaIx-IsHx9dG-28" value="C = 0" style="text;html=1;align=center;verticalAlign=middle;whiteSpace=wrap;rounded=0;" vertex="1" parent="1">
          <mxGeometry x="374" y="165" width="60" height="30" as="geometry" />
        </mxCell>
      </root>
    </mxGraphModel>
  </diagram>
</mxfile>
